<svg xmlns="http://www.w3.org/2000/svg" width="345" height="345" viewBox="0 0 345 345">
    <defs>
        <style>
            .cls-1 {
            fill: #11c8bd;
            }

            .cls-1, .cls-2 {
            fill-rule: evenodd;
            }

            .cls-2 {
            fill: #11c8bd;
            }
        </style>
    </defs>
    <path class="cls-1"
          d="M171,14c3.086,0.759,5.969,3.1,8,5l1,2h2l4,5h2l4,5h2l4,5h2l4,5c22.414,16.221,41.552,35.779,64,52l5,6h2l4,5h2l4,5h2l4,5h2l4,5h2l5,6h2l4,5h2l4,5h2l4,5h2l3,4h1v33h-1c-2.044-3.446-3.091-2.9-6-5l-4-5h-2l-4-5h-2l-5-6h-2l-4-5h-2l-4-5h-2l-4-5h-2l-5-6h-2l-4-5h-2l-1-2-3-2v-1h-2l-4-5h-2l-2-3h-1q-0.5-1-1-2h-2l-5-6h-2l-4-5h-2l-4-5h-2l-4-5h-2l-5-6h-2l-4-5h-2l-4-5h-2l-4-5h-2l-5-6h-2l-4-5h-2l-4-5h-2l-4-5h-2V51l-3-2-1-2h-4c-2.049,3.446-3.088,2.9-6,5l-4,5h-2l-4,5h-2l-4,5h-2l-5,6h-2l-4,5h-2l-4,5h-2l-4,5h-2l-5,6h-2l-4,5h-2l-4,5h-2l-2,3H99l-1,2H96l-5,6H89l-4,5H83l-4,5H77l-4,5H71l-4,5H65l-5,6H58l-4,5H52l-1,2-3,2v1H46l-4,5H40l-5,6H33l-4,5H27l-4,5H21c-1.733,1.251-2.576,3.579-5,5V144l8-6,2-3h2l4-5h2l4-5h2l5-6c19.96-14.45,37.027-31.568,57-46l5-6h2l4-5h2l4-5h2l4-5h2l4-5h2l5-6h2l4-5h2l4-5h2l4-5h2l4-5h2l4-5C169.865,14.609,169.43,16.432,171,14ZM53,39H78V69H76c-1.985,3.443-3.125,2.924-6,5l-4,5H64l-1,2-3,2v1H58v1c-1.736,1.434-2.413,2.308-5,3V39ZM78,150V265H53V170c2.441-1.41,3.26-3.744,5-5h2l4-5h2l4-5h2C74.579,153.142,73.674,151.191,78,150Zm188,57h25v55c0,9.623.279,18.969-2,26v4h-1v3h-1l-1,4h-1v3l-2,1-1,4-3,2v2l-6,5-3,4h-2l-1,2h-2l-1,2-6,2v1h-2v1c-12.694,5.546-39.337,3-57,3H155v-1h1l7-8,2-1v-2l3-2v-2l2-1v-2l2-1v-2h1l1-3h68v-1h3v-1h3v-1h2v-1h2l2-3h2l1-2h1v-2l3-2v-2h1l1-4h1v-3h1c1.94-5.756,1-17.55,1-25V207Z"/>
    <path class="cls-1"
          d="M228,140c37.906-.459,51.054,20.47,61,48H263c-3.729-8.615-21.129-31.97-36-21-18.07,5.5-25.8,31.13-33,48-14.781,34.641-29.344,90.286-59,109-28.562,18.023-56.92.586-70-19-3.6-5.168-9.8-22.189-9.432-21.9,0.175,0.137,18.807-.233,25.432-0.1,6.174,13.835,13.212,23.416,34,23,11.541-2.369,15.074-9.681,21-19,24.242-38.124,31.6-90.521,58-126,4.97-6.677,14.969-14.613,23-18C220.618,141.474,224.97,141.985,228,140Z"/>
</svg>
