<svg xmlns="http://www.w3.org/2000/svg" viewBox="0 0 575.31 798.14">
    <defs>
        <style>
            .a{fill:#1d1d1b;}.a,.b,.c{stroke:#1d1d1b;stroke-miterlimit:10;}.a,.b{stroke-width:3px;}.b,.c{fill:none;}.c{stroke-width:2px;}
        </style>
    </defs>
    <path class="a"
          d="M122.7,657.41a5.39,5.39,0,0,0,4.74,5L222,692.22c3.06.25,5.78,0,6.23-2.52l.74-57.77q-.15-3-6.23-6.08l-94.81-29.63c-1.88-.15-4.3,0-5.63,2.82Z"
          transform="translate(-10.09 -37.35)"/>
    <line class="b" x1="425.8" y1="585.98" x2="425.36" y2="768.2"/>
    <line class="b" x1="562.24" y1="508.2" x2="562.69" y2="669.09"/>
    <path class="c"
          d="M36.56,719.23C36,727.61,43.64,731.05,52,734q140.37,52.74,284.74,96.69c24.27,5.35,46.83,5.23,67.31-1.52"
          transform="translate(-10.09 -37.35)"/>
    <path class="b"
          d="M582.67,522.44c3.13,8-93.74,54.37-158.34,90.82Q390,629,325.22,617.93C200.44,583.05,19,530.44,12.81,515l-.92-406.82,1.33,587.11q-2.15,15.4,19.71,22.52,149.4,56.74,303.85,104.59c38.5,11.55,69.33,11.12,92-2.22l143.78-99.7c8.66-6.22,11.57-16,11.33-24.3l-4.08-583.51q1.31-12.88-17.11-17.08l-303-53.78a181.92,181.92,0,0,0-58.52-1.18l-180,48.74Q9.9,96.6,11.89,108.22"
          transform="translate(-10.09 -37.35)"/>
    <path class="c"
          d="M566.19,96.82l.66,15.89q.15,3.93-4.15,6.48l-157.63,55.4c-25.7,4.78-54.77,3.78-85.63-.29L25.22,112.37a8.45,8.45,0,0,1-5.33-4.15l1.33-18.81"
          transform="translate(-10.09 -37.35)"/>
    <path class="c" d="M21.22,96.06a18,18,0,0,0,6.08,2.75l301,62.45c30,3.12,57.92,2.7,82.89-2.67l155.22-55.86"
          transform="translate(-10.09 -37.35)"/>
    <path class="c"
          d="M528.78,253.33c7.91-4.13,12.17-10.45,12.89-18.89l.89-51.77c-1.43-7-5.15-10.6-12.89-8.23L449,203.33c-6,3.23-11.56,7.56-13.56,16l2,57.78c.12,7.74,6.25,9.45,16.67,6.89l75.33-30.67"
          transform="translate(-10.09 -37.35)"/>
    <line class="c" x1="509.58" y1="206.87" x2="472.47" y2="198.65"/>
    <path class="c"
          d="M12.78,505c24.66,19,198.11,70.33,315.85,101.34,34.69,6.39,65.14,5.27,91.26-3.56-.39.39,151.84-80.31,163-88.89"
          transform="translate(-10.09 -37.35)"/>
    <line class="c" x1="2.69" y1="457.54" x2="174.54" y2="386.72"/>
    <path class="c" d="M582.85,506.44,272.63,421" transform="translate(-10.09 -37.35)"/>
    <path class="c" d="M184.63,424.07q38.37-10.87,88-3.12" transform="translate(-10.09 -37.35)"/>
    <path class="c" d="M12.78,505c6.4-9.89,105.39-45.7,173.51-74.25" transform="translate(-10.09 -37.35)"/>
    <path class="c" d="M186.29,430.71c18-7.44,44.82-7.76,69.19-6.94" transform="translate(-10.09 -37.35)"/>
    <path class="c" d="M313.89,439.42c.73,4.34,266.83,63.77,263.2,78.12" transform="translate(-10.09 -37.35)"/>
    <line class="c" x1="410.69" y1="252.2" x2="410.69" y2="472.2"/>
    <line class="c" x1="556.43" y1="125.87" x2="562.47" y2="448.06"/>
    <line class="c" x1="390.69" y1="168.87" x2="419.58" y2="173.09"/>
    <path class="c" d="M400.33,261.56l35.78-14.23L475.22,234c5.47-3.22,9.15-7.28,10-12.67l.45-30.22"
          transform="translate(-10.09 -37.35)"/>
    <path class="c"
          d="M287.06,68.61c10.71,0,19.38,5.27,19.66,10.55l1.17.44c0,10.32-38.41,18.67-85.87,18.67-48.83,0-88.35-8.27-88.35-18.49,0-6.19,9.3-11.2,20.8-11.2"
          transform="translate(-10.09 -37.35)"/>
    <line class="c" x1="270.91" y1="55.09" x2="270.69" y2="39.98"/>
    <line class="c" x1="150.58" y1="55.87" x2="150.86" y2="41.48"/>
    <path class="c" d="M286.44,67.5c2.12,14.56-34.51,17.94-77.16,17.94-29.76,0-53.84-5.79-53.84-12.94l.17-7.67"
          transform="translate(-10.09 -37.35)"/>
    <path class="c" d="M155.61,64.83c0-11.94,30-21.61,67.06-21.61,35.25,0,63.77,10.94,63.77,24.45"
          transform="translate(-10.09 -37.35)"/>
    <path class="c" d="M284.33,61.56c0,8.68-27.83,15.7-62.22,15.7-36.6,0-66.22-6-66.22-13.33"
          transform="translate(-10.09 -37.35)"/>
    <line class="c" x1="265.5" y1="143.76" x2="256.43" y2="419.5"/>
    <line class="c" x1="162.24" y1="118.28" x2="179.87" y2="414.87"/>
    <line class="c" x1="302.24" y1="422.13" x2="301.36" y2="397.42"/>
    <line class="c" x1="301.36" y1="397.42" x2="245.95" y2="424.65"/>
    <line class="c" x1="311.58" y1="416.5" x2="312.17" y2="428.5"/>
    <line class="c" x1="250.54" y1="467.61" x2="312.17" y2="428.5"/>
    <line class="c" x1="302.24" y1="422.13" x2="311.58" y2="416.5"/>
    <line class="c" x1="301.8" y1="413.24" x2="311.58" y2="416.5"/>
    <line class="c" x1="304.7" y1="402.67" x2="301.8" y2="401.39"/>
    <line class="c" x1="183.43" y1="465.39" x2="183.28" y2="421.28"/>
    <path class="c" d="M190,452.22c0,8.63,17.3,15.62,38.67,15.62" transform="translate(-10.09 -37.35)"/>
    <path class="c" d="M256,462c-2.08,1.69-12.26,5.84-27.41,5.84" transform="translate(-10.09 -37.35)"/>
    <path class="c" d="M193.52,502.74c0,6.31,15.7,11.41,35.11,11.41" transform="translate(-10.09 -37.35)"/>
    <path class="c" d="M228.63,514.15q18.38-.15,32-9.19" transform="translate(-10.09 -37.35)"/>
    <line class="c" x1="257.57" y1="384.65" x2="229.06" y2="389.86"/>
    <path class="c" d="M189.73,448.39c0-7.53,17.73-13.62,39.64-13.62" transform="translate(-10.09 -37.35)"/>
    <path class="c" d="M194.7,446.44c0,6.15,14.71,11.12,32.89,11.12" transform="translate(-10.09 -37.35)"/>
    <path class="c" d="M261.07,446.44c0,6.15-15,11.12-33.48,11.12" transform="translate(-10.09 -37.35)"/>
    <path class="c" d="M261.07,446.44c0-6.45-14.18-11.67-31.7-11.67" transform="translate(-10.09 -37.35)"/>
    <path class="c" d="M194.7,446.44c0-3.51,1.46-6.36,3.26-6.36" transform="translate(-10.09 -37.35)"/>
    <path class="c" d="M200.33,452c0-5.2,12.2-9.41,27.26-9.41" transform="translate(-10.09 -37.35)"/>
    <path class="c" d="M255.48,452.6c0-5.53-12.47-10-27.89-10" transform="translate(-10.09 -37.35)"/>
    <path class="c" d="M239.15,427.22a181.29,181.29,0,0,0-33.75,10.32" transform="translate(-10.09 -37.35)"/>
    <path class="c"
          d="M438.83,282.09,399.89,274q-6.88-2.37-9.33-12.44l-.89-48.89c2.69-10.95,9.55-17.19,19.11-18.67l76.66-28.44c2.15-.65,3.56-1,5.56-.45l33.33,6.67"
          transform="translate(-10.09 -37.35)"/>
    <path class="c" d="M574.41,119.19,549.07,129.7c-4.39,2.55-7,6.15-7.26,11.11l-.14,24.75"
          transform="translate(-10.09 -37.35)"/>
    <path class="c"
          d="M433.67,200.22l.14-21.78q-1-4.14-8-4.14a126.15,126.15,0,0,1-26.59,7.11c-24.28,1.59-48,2.19-70.89,0C145,145.46,17.67,118.59,16.48,113.41"
          transform="translate(-10.09 -37.35)"/>
    <path class="c"
          d="M203.56,167c.06,4.78-3.12,8.74-11.12,13.11l-77.66,26.45c-5.2,1.19-15.45,0-15.45,0l-34.77-7.34q-7.85-4.17-8.78-15.22c-.45-12.78-3.76-49,1.78-55.44"
          transform="translate(-10.09 -37.35)"/>
    <path class="c" d="M58.87,194a34.64,34.64,0,0,0,13.24,2L155,168.67q8.77-6.16,8.22-16.56"
          transform="translate(-10.09 -37.35)"/>
</svg>
