<svg xmlns="http://www.w3.org/2000/svg" viewBox="0 0 477.09 838.16">
    <defs>
        <style>
            .cls-1{fill:#1d1d1b;}.cls-2,.cls-3{fill:none;stroke:#1d1d1b;}.cls-2{stroke-width:4px;}.cls-3{stroke-width:6px;}
        </style>
    </defs>
    <g id="Ebene_1">
        <path class="cls-1"
              d="M19.78,135a51,51,0,0,1,1.43-13c.51-2.22,1.13-4.42,1.85-6.58a54.17,54.17,0,0,1,2.37-6.11,91.83,91.83,0,0,1,17.2-24.8c17-17.85,39.14-30.57,61.72-40.07,29.16-12.26,60.55-19.74,91.9-23.6,34.78-4.28,70.27-4.67,105-.17,30.39,3.93,60.9,11.68,88.73,24.65,22.42,10.44,44,24.36,59.56,43.9,10.4,13.07,17.51,29.55,17.19,46-.07,3.58-.31,7.17-.46,10.75l-2.76,63.61L459.1,312.29l-5.27,121.48-5.19,119.8-4.23,97.68L442,706.42c-.24,5.47-.29,11.84-1,16.28-3.76,22.1-17.24,40.3-34.33,54.77-21.08,17.85-47.25,29.48-73.63,37-32.29,9.21-65.9,12.17-99.38,10.62-32.42-1.5-64.78-7.27-95.34-18.34-24.47-8.87-48.5-21.54-67.26-39.84a98.29,98.29,0,0,1-19.36-25.49,71.66,71.66,0,0,1-7.78-27.36c-.21-3.82-.26-7.67-.42-11.5L41,644.19l-4.17-99.84-5-120.62-5-120.82-4.2-100.45L20.11,143l-.33-8c-.4-9.62-15.41-9.67-15,0l1.39,33.33,3.57,85.59,4.84,115.81L19.8,495l4.71,112.71,3.27,78.37c.6,14.45,0,30.35,3.65,44.35,5.94,22.69,21.41,41.89,39.45,56.34,22.53,18.06,49.12,30.42,76.61,38.88,32.57,10,66.91,14.62,100.94,14.87,33.85.25,68.12-4.37,100.27-15.19,47.21-15.88,100.43-49.18,107.39-103.12,1.62-12.6,1.36-25.77,1.91-38.45l3.57-82.21,4.93-114,5.41-124.87,5-114.86,3.6-83c.51-11.9,2.07-24.29,1-36.2C476.87,77,427.59,44.09,383.73,26.34,319.76.46,247.05-2.58,179.5,8.17c-31.06,4.94-61.65,13.42-90.24,26.63C66.33,45.4,43.84,59.6,27.37,79.05,14,94.85,4.9,114,4.78,135c-.06,9.65,14.94,9.67,15,0Z"
              transform="translate(-4.77 -2.34)"/>
        <path class="cls-1"
              d="M452.87,456c0,1.4-.06,2.79-.17,4.17-.05.63-.13,1.26-.19,1.89-.13,1.47.33-2,.07-.5-.08.43-.14.87-.22,1.31a54.12,54.12,0,0,1-2.09,8.1c-.23.66-.47,1.33-.73,2-.11.3-.23.6-.35.9-.52,1.33.25-.52.23-.53.19.15-1.88,4-2,4.26a70.9,70.9,0,0,1-4.67,7.64c-.4.57-.8,1.14-1.22,1.7a10.66,10.66,0,0,1-.76,1c.06-.07,1.17-1.46.39-.51-1.1,1.34-2.19,2.68-3.35,4-2.2,2.47-4.54,4.82-7,7.07-1.16,1.06-2.33,2.09-3.53,3.11q-1.09.93-2.22,1.83l-.75.61-.77.6q-.94.74.36-.27c-.94,1.22-3,2.21-4.22,3.09q-2.4,1.69-4.87,3.3a184,184,0,0,1-21,11.66c-1.92.92-3.85,1.8-5.79,2.66l-2.7,1.18c-1.83.79,1.47-.6-.39.16l-1.66.69q-6.24,2.53-12.6,4.75a329.75,329.75,0,0,1-57.61,14.09c-9.71,1.52-20,2.68-31.17,3.47s-22.52,1.15-33.8,1.08-22.68-.52-34-1.36q-8.2-.61-16.4-1.51-4-.45-8-1l-1.45-.19a6.57,6.57,0,0,1-.89-.12l-4.3-.61a379.73,379.73,0,0,1-58.17-13.06q-6.65-2.08-13.21-4.47-3-1.08-5.91-2.23L103,524.89l-1.63-.67c-.33-.13-2.72-1.15-.9-.36a222.51,222.51,0,0,1-21.82-10.7q-4.9-2.77-9.62-5.86Q67,505.93,65,504.53c-.78-.56-1.57-1.12-2.34-1.69l-.77-.57c-.46-.35-1.84-1.79-.36-.26-2.28-2.36-5.24-4.24-7.66-6.48a93.82,93.82,0,0,1-6.64-6.74c-1-1.13-2-2.3-2.93-3.47-1.21-1.49.86,1.2-.3-.4-.47-.64-.94-1.28-1.4-1.93a66.35,66.35,0,0,1-4.4-7.23c-.63-1.21-1.19-2.45-1.77-3.69-.48-1.05.33.74.33.78a4.45,4.45,0,0,0-.41-1c-.26-.68-.51-1.36-.75-2.05a50.25,50.25,0,0,1-2-7.63c-.07-.35-.11-.7-.18-1-.25-1.4.21,2,.08.59-.06-.59-.13-1.18-.18-1.77-.11-1.3-.16-2.61-.16-3.92,0-3.92-3.44-7.68-7.5-7.5a7.63,7.63,0,0,0-7.5,7.5c.1,27.72,20.79,49.24,42.47,63.7,14.13,9.42,29.73,16.56,45.62,22.45a346.23,346.23,0,0,0,57.39,15.49c44.85,8.32,91.4,10.35,136.73,5,39.2-4.6,79.06-14.2,113.61-33.88,23.58-13.44,48.52-34.47,53-62.88a64.62,64.62,0,0,0,.89-9.92c0-3.92-3.46-7.68-7.5-7.5a7.64,7.64,0,0,0-7.5,7.5Z"
              transform="translate(-4.77 -2.34)"/>
    </g>
    <g id="Ebene_3">
        <path class="cls-1"
              d="M226.2,15.22c-39.55,0-79.61,6.7-116,22.58C83.18,49.6,55.69,68,42,95c-5.62,11.11-9.14,24.16-7.85,36.69,1.19,11.56,6.42,21.81,13.75,30.69,8.46,10.22,19.52,18.29,30.94,24.91,14.33,8.3,29.85,14.59,45.6,19.61,39.22,12.53,80.92,17.6,122,18,39.93.39,80.57-5.19,117.9-19.81C393,193.89,421.71,177,439,150.8a75.65,75.65,0,0,0,12.55-36.14,48.63,48.63,0,0,0-8.06-30.33c-6.8-10.36-16.39-18.56-26.63-25.39-12.9-8.6-27.19-15.07-41.71-20.41-37.13-13.67-77-20-116.36-22.34q-16.26-1-32.54-1c-6.43,0-6.44,10,0,10,40.64,0,81.6,4.19,120.88,14.9a261.66,261.66,0,0,1,45.48,16.56A164,164,0,0,1,410.84,67q1.92,1.25,3.8,2.58c.64.45,1.27.91,1.9,1.37l.85.63c.17.12,1.58,1.22.65.49,2.31,1.81,4.57,3.71,6.71,5.72a76.46,76.46,0,0,1,5.74,5.93c.48.55.94,1.1,1.39,1.66.22.26,1.37,1.78.54.65.82,1.11,1.63,2.22,2.39,3.38a51.78,51.78,0,0,1,3.56,6.33c.23.48.44,1,.65,1.46-.63-1.44.19.51.32.87.4,1.07.75,2.16,1.06,3.27s.56,2.19.77,3.3c.09.5.17,1,.25,1.51.2,1.1-.1-1.22,0-.11,0,.36.08.71.11,1.07a49.45,49.45,0,0,1,0,8c-.05.65-.11,1.31-.18,2,0,.4-.09.79-.14,1.18.14-1.18,0-.26,0,0-.24,1.49-.5,3-.83,4.46a66.38,66.38,0,0,1-2.45,8.38c-.27.75-.57,1.5-.86,2.24-.1.25-.2.5-.31.75.48-1.14-.05.11-.13.29-.67,1.48-1.37,2.95-2.13,4.4a80.12,80.12,0,0,1-4.7,7.87c-.88,1.3-1.8,2.58-2.74,3.84l-.52.69c.68-.89-.21.25-.29.35-.55.69-1.11,1.37-1.67,2q-3.27,3.88-6.89,7.44c-2.51,2.47-5.14,4.83-7.85,7.09s-4.69,3.78-7.95,6.07a173.23,173.23,0,0,1-20.09,12.18c-31.82,16.58-68.58,25-104.61,27.65a420.7,420.7,0,0,1-63.8-.52,411.89,411.89,0,0,1-58.77-8.76c-9-2-17.84-4.4-26.6-7.17q-6-1.91-12-4.09-2.88-1-5.74-2.18-1.28-.49-2.55-1l-1.51-.62-1-.44a195.37,195.37,0,0,1-20.37-10.05c-3-1.71-5.93-3.51-8.8-5.43q-2.06-1.37-4.07-2.82l-2-1.43-.87-.66c.89.68-.53-.43-.68-.54A91.67,91.67,0,0,1,55.59,156c-.49-.57-1-1.16-1.43-1.74l-.46-.58c.8,1,0,0-.11-.16-.85-1.17-1.68-2.34-2.46-3.55a53.46,53.46,0,0,1-3.68-6.67c-.13-.27-.87-2.05-.31-.65-.25-.62-.5-1.24-.72-1.86q-.63-1.71-1.11-3.45c-.32-1.15-.59-2.31-.81-3.49-.1-.53-.18-1.06-.27-1.59-.21-1.14.1,1.19,0,0,0-.37-.08-.75-.12-1.12a51.7,51.7,0,0,1,0-8.16c0-.67.11-1.34.18-2,0-.4.09-.8.13-1.2.13-1.3-.12.75,0-.06.23-1.52.49-3,.82-4.53a67.92,67.92,0,0,1,2.48-8.51c.28-.76.57-1.52.88-2.28.1-.25.2-.5.31-.75-.47,1.12.07-.15.14-.31.67-1.52,1.4-3,2.17-4.47A83.77,83.77,0,0,1,56,91c.9-1.31,1.84-2.6,2.8-3.87-.61.8.67-.85.85-1.07.56-.69,1.13-1.38,1.7-2.06A116.24,116.24,0,0,1,76.44,69.36l1.91-1.53a5.7,5.7,0,0,1,.55-.42l1-.75c1.55-1.16,3.12-2.28,4.7-3.38Q89.3,60,94.22,57.14C124.86,39,160.86,29.81,196.42,26.57c9.9-.91,19.84-1.34,29.78-1.35C232.64,25.22,232.65,15.22,226.2,15.22Z"
              transform="translate(-4.77 -2.34)"/>
        <line class="cls-2" x1="358.01" y1="149.14" x2="357.65" y2="129.95"/>
        <line class="cls-2" x1="121.29" y1="125.14" x2="121.29" y2="152.45"/>
        <path class="cls-2" d="M362.78,151.48c0,31-53.67,56-120,56" transform="translate(-4.77 -2.34)"/>
        <path class="cls-2" d="M362.78,151.48c0,36.69-53.67,66.37-120,66.37" transform="translate(-4.77 -2.34)"/>
        <path class="cls-2" d="M126.06,154.79c0,29.13,52.21,52.69,116.74,52.69" transform="translate(-4.77 -2.34)"/>
        <path class="cls-2" d="M126.06,154.79c0,34.86,53.54,63.06,119.7,63.06" transform="translate(-4.77 -2.34)"/>
    </g>
    <g id="Ebene_2">
        <path class="cls-1"
              d="M126.06,127.48c0,35.7,47.44,64.59,106.07,64.59,72.21,0,130.65-28.89,130.65-64.59,0-30.39-58.44-55-130.65-55-58.63,0-106.07,24.59-106.07,55"
              transform="translate(-4.77 -2.34)"/>
        <path class="cls-1"
              d="M123.56,127.48c0,16.78,10.11,31.26,22.9,41.32,16.34,12.84,36.71,20,57,23.42a190,190,0,0,0,37.06,2.22,254.08,254.08,0,0,0,36.82-3.81c20.32-3.64,40.85-9.89,58.47-20.89,12.57-7.85,25-19.16,28.48-34.18a30.12,30.12,0,0,0-1.15-18.39,42.84,42.84,0,0,0-12.28-16,92.63,92.63,0,0,0-21.43-13.16,172.15,172.15,0,0,0-28.88-10,271.4,271.4,0,0,0-73.75-8c-22.75.57-45.94,4.63-66.68,14.25-14.51,6.72-29.88,17.36-35,33.29a32.38,32.38,0,0,0-1.56,9.87c0,3.22,5,3.22,5,0a25.62,25.62,0,0,1,1.61-9.2,24.5,24.5,0,0,1,1.81-4.13,38.85,38.85,0,0,1,2.69-4.35c4.2-5.94,10.53-11.18,16.94-15.19C169,83.69,189.9,78.38,210.17,76.18a236.7,236.7,0,0,1,37.37-.8,276,276,0,0,1,35.7,4c19.05,3.46,38.5,8.86,55.17,19,6.06,3.69,11.47,7.81,16,13.51.06.06.29.37,0,0l.39.53c.22.29.42.58.63.88.44.64.86,1.29,1.26,2s.69,1.19,1,1.81c.16.3.31.6.45.91s.17.36.25.55.29.69.07.14a26.6,26.6,0,0,1,1.26,3.91c.16.66.28,1.33.39,2,0,.16.07.61,0,0,0,.19,0,.38.07.57,0,.35.06.7.07,1.06a28.83,28.83,0,0,1-.13,4.55c0,.17-.15,1.22-.07.64-.05.37-.11.73-.17,1.09q-.21,1.19-.51,2.37a31.66,31.66,0,0,1-3.38,8.49,47.36,47.36,0,0,1-2.73,4.31,41.44,41.44,0,0,1-3,3.76,66.74,66.74,0,0,1-8.06,7.71,104.59,104.59,0,0,1-21.89,13.28,165.62,165.62,0,0,1-28.47,9.95,223.25,223.25,0,0,1-33.56,5.9,230.47,230.47,0,0,1-36.68,1c-21-1.26-42.3-6.29-60.66-16.75a79.77,79.77,0,0,1-20.27-15.94,48.2,48.2,0,0,1-10.75-19.07,35.35,35.35,0,0,1-1.35-10c0-3.22-5-3.22-5,0Z"
              transform="translate(-4.77 -2.34)"/>
    </g>
    <g id="Ebene_5">
        <path class="cls-3" d="M342.87,33.84c0,27.39-16.27,42.89-32.63,49.55" transform="translate(-4.77 -2.34)"/>
        <path class="cls-3" d="M46.34,97.51" transform="translate(-4.77 -2.34)"/>
        <path class="cls-3" d="M126.06,153.28" transform="translate(-4.77 -2.34)"/>
        <path class="cls-3" d="M40.07,115.68" transform="translate(-4.77 -2.34)"/>
        <path class="cls-3" d="M127.27,163.77" transform="translate(-4.77 -2.34)"/>
        <path class="cls-3" d="M40.07,128.67" transform="translate(-4.77 -2.34)"/>
        <path class="cls-3" d="M131.87,174.27" transform="translate(-4.77 -2.34)"/>
        <path class="cls-3" d="M372.28,44.81c-9.68,21.34-21,39.71-42,46.37" transform="translate(-4.77 -2.34)"/>
        <path class="cls-3" d="M395.84,52.74c0,26.56-50.49,48.05-50.49,48.05" transform="translate(-4.77 -2.34)"/>
        <path class="cls-3" d="M418.2,64.07c0,25.23-60.74,45.63-60.74,45.63" transform="translate(-4.77 -2.34)"/>
        <path class="cls-3" d="M433.55,79.61q-29.82,35.22-70.95,40.46" transform="translate(-4.77 -2.34)"/>
        <path class="cls-3" d="M314.77,27.77c0,27.6-15.38,42.7-27.06,49.93" transform="translate(-4.77 -2.34)"/>
        <path class="cls-3" d="M280.94,23c0,28.31-7.14,51.23-16,51.23" transform="translate(-4.77 -2.34)"/>
        <path class="cls-3" d="M248.74,20.69c5,27.94-3.45,51.81-7.72,51.81" transform="translate(-4.77 -2.34)"/>
        <path class="cls-3" d="M213.85,20.7c11.17,30.84-.92,52.58-2,52.58" transform="translate(-4.77 -2.34)"/>
        <path class="cls-3" d="M191.24,76.73c0-29-7.34-52.43-16.4-52.43" transform="translate(-4.77 -2.34)"/>
        <path class="cls-3" d="M165.7,83.39c1.09-27.63-13.09-50.08-29.28-50.08" transform="translate(-4.77 -2.34)"/>
        <path class="cls-3" d="M148.85,93.4c-5.85-29.33-17-46.81-34-52.21" transform="translate(-4.77 -2.34)"/>
        <path class="cls-3" d="M86.1,55" transform="translate(-4.77 -2.34)"/>
        <path class="cls-3" d="M135.61,104.81" transform="translate(-4.77 -2.34)"/>
        <path class="cls-3" d="M66.78,70.47" transform="translate(-4.77 -2.34)"/>
        <path class="cls-3" d="M127.27,119.14" transform="translate(-4.77 -2.34)"/>
        <path class="cls-3" d="M56.9,81.62" transform="translate(-4.77 -2.34)"/>
        <path class="cls-3" d="M125.56,139.11" transform="translate(-4.77 -2.34)"/>
        <path class="cls-3" d="M42.8,141.88" transform="translate(-4.77 -2.34)"/>
        <path class="cls-3" d="M136.42,181.14" transform="translate(-4.77 -2.34)"/>
        <path class="cls-3" d="M55,161.51" transform="translate(-4.77 -2.34)"/>
        <path class="cls-3" d="M145.13,189" transform="translate(-4.77 -2.34)"/>
        <path class="cls-3" d="M75.65,179.48" transform="translate(-4.77 -2.34)"/>
        <path class="cls-3" d="M152.69,194.47" transform="translate(-4.77 -2.34)"/>
        <path class="cls-3" d="M107,195.32" transform="translate(-4.77 -2.34)"/>
        <path class="cls-3" d="M162.13,199.92" transform="translate(-4.77 -2.34)"/>
        <path class="cls-3" d="M143.12,207.07" transform="translate(-4.77 -2.34)"/>
        <path class="cls-3" d="M171.18,204.13" transform="translate(-4.77 -2.34)"/>
        <path class="cls-3" d="M163.27,211.65" transform="translate(-4.77 -2.34)"/>
        <path class="cls-3" d="M183,208.52" transform="translate(-4.77 -2.34)"/>
        <path class="cls-3" d="M362.5,136.37q43.22-5.46,81.95-38.86" transform="translate(-4.77 -2.34)"/>
        <path class="cls-3" d="M362.78,151.48q41.82-6.84,83.64-35.8" transform="translate(-4.77 -2.34)"/>
        <path class="cls-3" d="M362,159.2q38.92-1.8,77.86-20.09" transform="translate(-4.77 -2.34)"/>
        <path class="cls-3" d="M357.46,171.09a202.37,202.37,0,0,0,69.06-12.25" transform="translate(-4.77 -2.34)"/>
        <path class="cls-3" d="M351.28,179.89A183,183,0,0,0,410,174.27" transform="translate(-4.77 -2.34)"/>
        <path class="cls-3" d="M341.7,189a162.63,162.63,0,0,0,45.69,0" transform="translate(-4.77 -2.34)"/>
        <path class="cls-3" d="M330.28,197.76q13.32,3.54,32.32,2.67" transform="translate(-4.77 -2.34)"/>
        <line class="cls-3" x1="310" y1="202.27" x2="331.19" y2="206.8"/>
        <line class="cls-3" x1="294.42" y1="207.75" x2="310" y2="211.68"/>
        <path class="cls-3" d="M135.61,104.81c-8.12-20.91-23-38.11-43.76-52.07" transform="translate(-4.77 -2.34)"/>
        <path class="cls-3" d="M127.27,123.33q-16.14-31.85-56.13-56" transform="translate(-4.77 -2.34)"/>
        <path class="cls-3" d="M124.57,151.48C101.38,129.08,75.27,111,47.5,95.32" transform="translate(-4.77 -2.34)"/>
        <path class="cls-3" d="M127,161.51a722.35,722.35,0,0,0-86.26-48.84" transform="translate(-4.77 -2.34)"/>
        <path class="cls-3" d="M130.09,171.09a458.87,458.87,0,0,0-90-42.42" transform="translate(-4.77 -2.34)"/>
        <path class="cls-3" d="M135.56,179.48c-29.4-14.35-60.45-26.35-92.76-37.6" transform="translate(-4.77 -2.34)"/>
        <path class="cls-3" d="M140.3,184.67a671.61,671.61,0,0,0-87.26-24" transform="translate(-4.77 -2.34)"/>
        <path class="cls-3" d="M77.74,180.72a509.76,509.76,0,0,1,68.89,9.45" transform="translate(-4.77 -2.34)"/>
        <path class="cls-3" d="M112.74,197.13a163.49,163.49,0,0,1,41.74-.86" transform="translate(-4.77 -2.34)"/>
        <path class="cls-3" d="M140.59,207.92q7.92-5,23-6.09" transform="translate(-4.77 -2.34)"/>
        <path class="cls-3" d="M163.27,211.65a33.65,33.65,0,0,1,16.67-4.17" transform="translate(-4.77 -2.34)"/>
        <path class="cls-3" d="M125.56,139.11c-16-23.57-39.06-43.33-68.66-59.5" transform="translate(-4.77 -2.34)"/>
    </g>
</svg>
