<svg xmlns="http://www.w3.org/2000/svg" viewBox="0 0 467.08 828.2">
    <defs>
        <style>.cls-1{fill:#1d1d1b;}.cls-2{fill:none;stroke:#1d1d1b;stroke-width:4px;}</style>
    </defs>
    <g id="Ebene_1">
        <path class="cls-1"
              d="M14.78,135C15.05,87.09,63.86,56,103,39.6c29.65-12.39,61.39-19.86,93.23-23.78a422,422,0,0,1,105-.17c31.32,4,62.57,12,91.26,25.33,22.76,10.61,44.76,24.87,60.57,44.69,11.1,13.91,19,31.42,18.65,49.5-.07,3.58-.31,7.17-.46,10.75l-2.76,63.61L464.1,312.29l-5.27,121.48-5.19,119.8-4.23,97.68L447,706.42c-.25,5.87-.24,11.81-1.23,17.61-3.89,22.89-18.21,42.24-35.61,57-21.76,18.43-48.59,30.51-75.84,38.28-32.69,9.32-66.82,12.37-100.71,10.8-32.85-1.52-65.7-7.3-96.67-18.52-25.29-9.17-50.07-22.21-69.47-41.12-15.39-15-27.36-34.48-28.6-56.39-.21-3.82-.26-7.67-.42-11.5L36,644.19l-4.17-99.84-5-120.62-5-120.82-4.2-100.45L15.11,143l-.33-8c-.14-3.21-5.14-3.22-5,0l1.39,33.33,3.57,85.59,4.84,115.81L24.8,495l4.71,112.71,3.27,78.37c.58,14-.08,29.47,3.47,43C42,751,57,769.28,74.41,783.21c21.83,17.49,47.8,29.4,74.41,37.59,32.17,9.9,66,14.44,99.61,14.69,33.44.25,67.18-4.33,98.94-15,44.85-15.09,96.91-46.86,103.72-98.3,1.67-12.58,1.36-25.79,1.91-38.45l3.57-82.21,4.93-114,5.41-124.87,5-114.86,3.6-83c.51-11.9,2.07-24.29,1-36.2C472.1,79.55,423.91,48,382.4,31.16,319.28,5.62,247.52,2.38,180.83,13c-30.6,4.87-60.87,13.11-89,26.13C69.2,49.56,47.14,63.43,30.91,82.58,18.39,97.36,9.89,115.38,9.78,135c0,3.22,5,3.22,5,0Z"
              transform="translate(-9.78 -7.3)"/>
        <path class="cls-1"
              d="M457.87,456c-.1,25.84-20.27,45.9-40.54,59.07-30.6,19.87-67.18,30.12-102.91,35.69-43.73,6.82-89,6.26-132.68-.2-36.37-5.37-73.4-14.86-105.6-33.09-20.6-11.66-43-29.19-47.35-54a44.58,44.58,0,0,1-.61-7.48c0-3.21-5-3.22-5,0,.09,25.84,19.82,45.94,40,59.38,13.78,9.18,28.94,16.21,44.43,22A346,346,0,0,0,165,552.82a455.86,455.86,0,0,0,135.4,4.86c38.3-4.49,77.34-14,111.08-33.2,22.57-12.86,46.42-32.69,50.69-59.89a56.14,56.14,0,0,0,.71-8.59c0-3.21-5-3.22-5,0Z"
              transform="translate(-9.78 -7.3)"/>
    </g>
    <g id="Ebene_3">
        <path class="cls-1"
              d="M226.2,17.72c-39.08,0-78.77,6.54-114.72,22.24C84.81,51.6,57.67,69.58,44.17,96.27c-5.43,10.73-8.75,23.32-7.51,35.42,1.11,10.84,6.15,20.6,13,28.92,8.33,10.08,19.18,18,30.43,24.52,14.15,8.2,29.45,14.4,45,19.36,39,12.46,80.45,17.51,121.31,17.91,39.73.39,80.09-5.18,117.23-19.72,28-11,56.27-27.49,73.13-53.14A73.12,73.12,0,0,0,449,114.66a46.35,46.35,0,0,0-7.72-29.07c-6.55-10-15.86-17.91-25.73-24.49-12.72-8.48-26.8-14.89-41.12-20.16-36.92-13.59-76.54-19.88-115.69-22.25q-16.26-1-32.54-1c-3.21,0-3.22,5,0,5,40.85,0,82.06,4.23,121.55,15a262.64,262.64,0,0,1,46.07,16.82C405.54,60.23,417,67.05,426.52,76c7.25,6.78,13.6,15,16.29,24.65,2.79,10,1,21.31-2.54,31.1-9.47,26-33.57,44.4-57.28,56.75-32.54,17-69.46,25.29-105.87,28a420.7,420.7,0,0,1-63.8-.52,416.64,416.64,0,0,1-59.43-8.85,292,292,0,0,1-50-15.77c-13.14-5.59-26-12.4-37.25-21.33-8.68-6.92-16.6-15.24-21.3-25.42-4.38-9.48-4.68-19.87-2.46-30C48.66,88.06,70.47,68.27,93,55c31.19-18.43,67.63-27.64,103.47-30.91,9.9-.91,19.84-1.34,29.78-1.35,3.22,0,3.23-5,0-5Z"
              transform="translate(-9.78 -7.3)"/>
        <path class="cls-2" d="M242.8,207.48" transform="translate(-9.78 -7.3)"/>
        <path class="cls-2" d="M360.13,151.48" transform="translate(-9.78 -7.3)"/>
        <path class="cls-2" d="M242.8,207.48" transform="translate(-9.78 -7.3)"/>
        <path class="cls-2" d="M124.57,151.48" transform="translate(-9.78 -7.3)"/>
        <path class="cls-2" d="M245.76,217.85" transform="translate(-9.78 -7.3)"/>
        <path class="cls-2" d="M359.92,154.79" transform="translate(-9.78 -7.3)"/>
        <path class="cls-2" d="M245.76,217.85" transform="translate(-9.78 -7.3)"/>
        <path class="cls-2" d="M124.57,151.48" transform="translate(-9.78 -7.3)"/>
        <path class="cls-2" d="M124.57,151.48" transform="translate(-9.78 -7.3)"/>
        <line class="cls-2" x1="353" y1="144.18" x2="352.64" y2="124.99"/>
        <path class="cls-2" d="M362.78,151.48c0,31-53.67,56-120,56" transform="translate(-9.78 -7.3)"/>
        <path class="cls-2" d="M362.78,151.48c0,36.69-53.67,66.37-120,66.37" transform="translate(-9.78 -7.3)"/>
        <line class="cls-2" x1="116.28" y1="120.18" x2="116.28" y2="147.49"/>
        <path class="cls-2" d="M126.06,154.79c0,29.13,52.21,52.69,116.74,52.69" transform="translate(-9.78 -7.3)"/>
        <path class="cls-2" d="M126.06,154.79c0,34.86,53.54,63.06,119.7,63.06" transform="translate(-9.78 -7.3)"/>
    </g>
    <g id="Ebene_2">
        <path class="cls-1"
              d="M126.06,127.48c0,35.7,47.44,64.59,106.07,64.59,72.21,0,130.65-28.89,130.65-64.59,0-30.39-58.44-55-130.65-55-58.63,0-106.07,24.59-106.07,55"
              transform="translate(-9.78 -7.3)"/>
        <path class="cls-1"
              d="M123.56,127.48c0,16.78,10.11,31.26,22.9,41.32,16.34,12.84,36.71,20,57,23.42a190,190,0,0,0,37.06,2.22,254.08,254.08,0,0,0,36.82-3.81c20.32-3.64,40.85-9.89,58.47-20.89,12.57-7.85,25-19.16,28.48-34.18a30.12,30.12,0,0,0-1.15-18.39,42.84,42.84,0,0,0-12.28-16,92.63,92.63,0,0,0-21.43-13.16,172.15,172.15,0,0,0-28.88-10,271.4,271.4,0,0,0-73.75-8c-22.75.57-45.94,4.63-66.68,14.25-14.51,6.72-29.88,17.36-35,33.29a32.38,32.38,0,0,0-1.56,9.87c0,3.22,5,3.22,5,0a25.62,25.62,0,0,1,1.61-9.2,24.5,24.5,0,0,1,1.81-4.13,38.85,38.85,0,0,1,2.69-4.35c4.2-5.94,10.53-11.18,16.94-15.19C169,83.69,189.9,78.38,210.17,76.18a236.7,236.7,0,0,1,37.37-.8,276,276,0,0,1,35.7,4c19.05,3.46,38.5,8.86,55.17,19,6.06,3.69,11.47,7.81,16,13.51.06.06.29.37,0,0l.39.53c.22.29.42.58.63.88.44.64.86,1.29,1.26,2s.69,1.19,1,1.81c.16.3.31.6.45.91s.17.36.25.55.29.69.07.14a26.6,26.6,0,0,1,1.26,3.91c.16.66.28,1.33.39,2,0,.16.07.61,0,0,0,.19,0,.38.07.57,0,.35.06.7.07,1.06a28.83,28.83,0,0,1-.13,4.55c0,.17-.15,1.22-.07.64-.05.37-.11.73-.17,1.09q-.21,1.19-.51,2.37a31.66,31.66,0,0,1-3.38,8.49,47.36,47.36,0,0,1-2.73,4.31,41.44,41.44,0,0,1-3,3.76,66.74,66.74,0,0,1-8.06,7.71,104.59,104.59,0,0,1-21.89,13.28,165.62,165.62,0,0,1-28.47,9.95,223.25,223.25,0,0,1-33.56,5.9,230.47,230.47,0,0,1-36.68,1c-21-1.26-42.3-6.29-60.66-16.75a79.77,79.77,0,0,1-20.27-15.94,48.2,48.2,0,0,1-10.75-19.07,35.35,35.35,0,0,1-1.35-10c0-3.22-5-3.22-5,0Z"
              transform="translate(-9.78 -7.3)"/>
    </g>
    <g id="Ebene_5">
        <path class="cls-2" d="M342.87,33.84c0,27.39-16.27,42.89-32.63,49.55" transform="translate(-9.78 -7.3)"/>
        <path class="cls-2" d="M126.06,153.28C98,128.48,76.85,119.86,46.34,97.51" transform="translate(-9.78 -7.3)"/>
        <path class="cls-2" d="M127.27,163.77c-21.07-11-45.25-33.12-87.2-48.09" transform="translate(-9.78 -7.3)"/>
        <path class="cls-2" d="M131.87,174.27a813.43,813.43,0,0,0-91.8-45.6" transform="translate(-9.78 -7.3)"/>
        <path class="cls-2" d="M372.28,44.81c-9.68,21.34-21,39.71-42,46.37" transform="translate(-9.78 -7.3)"/>
        <path class="cls-2" d="M395.84,52.74c0,26.56-50.49,48.05-50.49,48.05" transform="translate(-9.78 -7.3)"/>
        <path class="cls-2" d="M418.2,64.07c0,25.23-60.74,45.63-60.74,45.63" transform="translate(-9.78 -7.3)"/>
        <path class="cls-2" d="M433.55,79.61q-29.82,35.22-70.95,40.46" transform="translate(-9.78 -7.3)"/>
        <path class="cls-2" d="M314.77,27.77c0,27.6-15.38,42.7-27.06,49.93" transform="translate(-9.78 -7.3)"/>
        <path class="cls-2" d="M280.94,23c0,28.31-7.14,51.23-16,51.23" transform="translate(-9.78 -7.3)"/>
        <path class="cls-2" d="M248.74,20.69c5,27.94-3.45,51.81-7.72,51.81" transform="translate(-9.78 -7.3)"/>
        <path class="cls-2" d="M213.85,20.7c11.17,30.84-.92,52.58-2,52.58" transform="translate(-9.78 -7.3)"/>
        <path class="cls-2" d="M191.24,76.73c0-29-7.34-52.43-16.4-52.43" transform="translate(-9.78 -7.3)"/>
        <path class="cls-2" d="M165.7,83.39c1.09-27.63-13.09-50.08-29.28-50.08" transform="translate(-9.78 -7.3)"/>
        <path class="cls-2" d="M148.85,93.4c-5.85-29.33-17-46.81-34-52.21" transform="translate(-9.78 -7.3)"/>
        <path class="cls-2" d="M136.42,105.56c-7.87-24.9-49.51-49.8-49.51-49.8" transform="translate(-9.78 -7.3)"/>
        <path class="cls-2" d="M127.27,119.14c-9.81-17.73-52.2-53.51-60.49-48.67" transform="translate(-9.78 -7.3)"/>
        <path class="cls-2" d="M125.56,139.11C132,128,56.9,81.62,56.9,81.62" transform="translate(-9.78 -7.3)"/>
        <path class="cls-2" d="M136.42,181.14c-27.1-11.22-58.77-24.74-93.62-39.26" transform="translate(-9.78 -7.3)"/>
        <path class="cls-2" d="M145.13,189c-31.72-9.73-61.78-18.75-90.18-27.47" transform="translate(-9.78 -7.3)"/>
        <path class="cls-2" d="M152.69,194.47a393.4,393.4,0,0,1-77-15" transform="translate(-9.78 -7.3)"/>
        <path class="cls-2" d="M162.13,199.92q-23.83,1.43-55.15-4.6" transform="translate(-9.78 -7.3)"/>
        <line class="cls-2" x1="161.4" y1="196.83" x2="133.34" y2="199.77"/>
        <line class="cls-2" x1="173.26" y1="201.22" x2="153.49" y2="204.35"/>
        <path class="cls-2" d="M362.5,136.37q43.22-5.46,81.95-38.86" transform="translate(-9.78 -7.3)"/>
        <path class="cls-2" d="M362.78,151.48q41.82-6.84,83.64-35.8" transform="translate(-9.78 -7.3)"/>
        <path class="cls-2" d="M362,159.2q38.92-1.8,77.86-20.09" transform="translate(-9.78 -7.3)"/>
        <path class="cls-2" d="M357.46,171.09a202.37,202.37,0,0,0,69.06-12.25" transform="translate(-9.78 -7.3)"/>
        <path class="cls-2" d="M351.28,179.89A183,183,0,0,0,410,174.27" transform="translate(-9.78 -7.3)"/>
        <path class="cls-2" d="M341.7,189a162.63,162.63,0,0,0,45.69,0" transform="translate(-9.78 -7.3)"/>
        <path class="cls-2" d="M330.28,197.76q13.32,3.54,32.32,2.67" transform="translate(-9.78 -7.3)"/>
        <line class="cls-2" x1="305" y1="197.31" x2="326.18" y2="201.84"/>
        <line class="cls-2" x1="289.42" y1="202.79" x2="305" y2="206.72"/>
    </g>
</svg>
