<svg xmlns="http://www.w3.org/2000/svg" viewBox="0 0 421.8 713.26">
    <defs>
        <style>
            .a{fill:#1d1d1b;stroke-width:3px;}.a,.b,.c,.d{stroke:#1d1d1b;stroke-miterlimit:10;}.b,.c,.d{fill:none;}.b{stroke-width:9px;}.c{stroke-width:5px;}.d{stroke-width:6px;}
        </style>
    </defs>
    <path class="a"
          d="M274.7,681c0-30-28.49-54.22-63.7-54.22a37.17,37.17,0,0,0-37,37.33c0,33.91,27.83,61.34,62.23,61.34C257.48,725.41,274.7,705.53,274.7,681Z"
          transform="translate(-75.19 -70.23)"/>
    <path class="b"
          d="M457.22,136.07c0-29.48-76.73-53.33-171.55-53.33-94.66,0-171.26,23.85-171.26,53.33s76.6,53.34,171.26,53.34C380.49,189.41,457.22,165.55,457.22,136.07Z"
          transform="translate(-75.19 -70.23)"/>
    <path class="b" d="M492.48,181.22c0-62.92-57.78-105-194.84-106.48" transform="translate(-75.19 -70.23)"/>
    <path class="b" d="M79.74,181.22C77.07,104.67,170.41,74,297.64,74.74" transform="translate(-75.19 -70.23)"/>
    <line class="b" x1="415.52" y1="171.44" x2="400.11" y2="608.66"/>
    <line class="b" x1="4.56" y1="110.99" x2="24.11" y2="605.7"/>
    <line class="b" x1="415.52" y1="171.44" x2="417.3" y2="110.99"/>
    <path class="b" d="M94.31,549.7C98.7,578.44,186.7,611,297.64,607.19" transform="translate(-75.19 -70.23)"/>
    <path class="b" d="M480.06,543.79c-3.28,33.47-81.59,63.4-182.42,63.4" transform="translate(-75.19 -70.23)"/>
    <path class="b" d="M99.3,675.93c4.14,57.18,78.22,101.33,175.4,102.81" transform="translate(-75.19 -70.23)"/>
    <path class="b" d="M475.3,678.89c-3,54.52-90.08,104-200.6,99.85" transform="translate(-75.19 -70.23)"/>
    <path class="b" d="M99.3,675.93c7.7,42.07,78.45,84.14,175.4,84.14" transform="translate(-75.19 -70.23)"/>
    <path class="b" d="M475.3,678.89c-9.49,39.11-87.87,83.94-200.6,81.18" transform="translate(-75.19 -70.23)"/>
    <path class="c" d="M141.67,152.67c45.63,35.26,226.66,40.89,288-.3" transform="translate(-75.19 -70.23)"/>
    <circle class="b" cx="227.84" cy="615.56" r="13.54"/>
    <path class="b"
          d="M163.56,659.36c0,6.87-4.87,12.35-11.2,12.35s-12.18-7.08-12.18-14,4.16-12.45,10.49-12.45S163.56,652.48,163.56,659.36Z"
          transform="translate(-75.19 -70.23)"/>
    <path class="d" d="M367.15,123.33c0-14.9-35.39-27-79.11-27" transform="translate(-75.19 -70.23)"/>
    <path class="d" d="M230.47,103.54c15.11-4.45,35.33-7.17,57.57-7.17" transform="translate(-75.19 -70.23)"/>
    <path class="d" d="M203.3,123.33c0-5.07,4.38-9.81,12-13.86" transform="translate(-75.19 -70.23)"/>
    <path class="d" d="M367.15,123.33c0,16-36.38,29-81.34,29" transform="translate(-75.19 -70.23)"/>
    <path class="d" d="M203.3,123.33c0,16,36.9,29,82.51,29" transform="translate(-75.19 -70.23)"/>
    <path class="d" d="M370.41,132.52c0-7.08-1.78-12.81-4-12.81" transform="translate(-75.19 -70.23)"/>
    <path class="d" d="M199.74,132.52c0-7.08,2.52-12.81,5.63-12.81" transform="translate(-75.19 -70.23)"/>
    <path class="d" d="M199.74,132.52c0,16.7,38.5,30.22,86.07,30.22" transform="translate(-75.19 -70.23)"/>
    <path class="d" d="M370.41,132.52c0,16.7-37.84,30.22-84.6,30.22" transform="translate(-75.19 -70.23)"/>
    <path class="d"
          d="M215,107.79c1.51,2.61,5.35,2.33,9.08.18s5.93-5.36,4.42-8-5.22-2-8.94.12S213.49,105.18,215,107.79Z"
          transform="translate(-75.19 -70.23)"/>
    <path class="d" d="M228.5,100a24.56,24.56,0,0,0,2.75,3.32,10.67,10.67,0,0,0,7.86,3.1"
          transform="translate(-75.19 -70.23)"/>
    <path class="d" d="M214.6,106.76c0,1,0,2-.08,2.91-.27,4.4-1.13,7.63-2.15,7.63"
          transform="translate(-75.19 -70.23)"/>
    <path class="d" d="M222.67,112.26c0,4.12,1.7,7.45,3.81,7.45" transform="translate(-75.19 -70.23)"/>
    <line class="d" x1="136.05" y1="77.4" x2="135.22" y2="105.39"/>
    <line class="d" x1="285.45" y1="76.41" x2="285.49" y2="105.3"/>
    <path class="d" d="M210.82,162.74c4.5,8.21,12.8,13.93,28.29,16.41" transform="translate(-75.19 -70.23)"/>
    <path class="d" d="M360.66,162.74c-2.1,8.21-14.26,12.45-28.52,16.41" transform="translate(-75.19 -70.23)"/>
</svg>
