<svg viewBox="0 0 48 48" xmlns="http://www.w3.org/2000/svg"><path d="M21.462 8c6.899 0 12.964 4.763 14.631 11.404 3.353 1.285 5.91 4.19 6.736 7.698a.973.973 0 0 1-.722 1.165.973.973 0 0 1-1.165-.722 9.036 9.036 0 0 0-5.975-6.487.98.98 0 0 1-.649-.717C33.042 14.31 27.634 9.934 21.462 9.934c-6.207 0-11.623 4.406-12.878 10.471a.967.967 0 0 1-.628.718 9.012 9.012 0 0 0-6.022 8.494 8.953 8.953 0 0 0 8.704 8.992c.026 0 .052.004.078.004h1.569a.969.969 0 0 1 0 1.939h-1.677c-.047 0-.094-.005-.141-.009A10.885 10.885 0 0 1 0 29.621c0-4.458 2.712-8.46 6.804-10.127C8.442 12.8 14.52 8 21.462 8Zm25.893 22.786c.237 0 .426.189.426.425v.8c0 .236-.19.425-.426.425h-2.617l-.241 1.303a3.28 3.28 0 0 1 .447-.035c.881 0 1.616.301 2.192.894.572.594.86 1.35.864 2.257 0 .619-.146 1.2-.434 1.72a3.082 3.082 0 0 1-1.195 1.22c-.499.28-1.075.421-1.715.421-.782 0-1.457-.245-2.003-.73-.542-.482-.873-1.114-.976-1.874a.423.423 0 0 1 .421-.486h.86c.202 0 .378.146.417.344.052.258.137.464.25.61.111.15.261.267.46.361.197.095.399.142.618.142.434 0 .795-.16 1.11-.49.322-.335.476-.752.476-1.268 0-.447-.133-.8-.408-1.07-.525-.52-1.388-.576-2.755.008a.43.43 0 0 1-.434-.06.42.42 0 0 1-.15-.408l.773-4.161a.42.42 0 0 1 .417-.348Zm-7.99 7.449a1.134 1.134 0 0 1 1.59 0c.215.219.33.494.33.804 0 .3-.11.58-.326.795a1.108 1.108 0 0 1-.8.335c-.304 0-.584-.116-.799-.335a1.1 1.1 0 0 1-.326-.795c0-.31.116-.59.33-.804Zm-22.352-7.45c.997 0 1.663.044 2.037.138.564.138 1.036.43 1.397.864.37.443.555.997.555 1.65 0 .658-.185 1.213-.542 1.651-.352.435-.842.731-1.453.877-.412.103-1.143.15-2.226.15h-.172v3.465c0 .237-.19.426-.426.426h-.838a.424.424 0 0 1-.425-.426v-8.369c0-.236.189-.425.425-.425Zm18.264-.21c.885 0 1.616.297 2.175.877.554.576.834 1.268.834 2.055a3.15 3.15 0 0 1-.391 1.538c-.25.447-.701 1.028-1.385 1.771l-1.422 1.53h2.884c.236 0 .425.194.425.43v.804a.424.424 0 0 1-.425.426h-5.687a.424.424 0 0 1-.314-.714l3.198-3.456c.628-.67 1.036-1.165 1.212-1.47.16-.27.237-.55.237-.847 0-.356-.13-.653-.396-.91a1.365 1.365 0 0 0-.992-.392c-.422 0-.757.133-1.032.408-.284.284-.439.688-.482 1.234a.427.427 0 0 1-.425.395h-.804a.43.43 0 0 1-.305-.128.414.414 0 0 1-.12-.31c.025-.933.348-1.715.954-2.321.61-.61 1.371-.92 2.26-.92Zm-12.07.206c.163 0 .31.09.383.237l3.017 6.095 2.987-6.09a.433.433 0 0 1 .383-.237h.133c.21 0 .391.154.426.36l1.203 8.37a.422.422 0 0 1-.421.486h-.821a.43.43 0 0 1-.421-.37l-.636-4.612-2.347 4.74a.425.425 0 0 1-.383.237h-.215a.425.425 0 0 1-.382-.236l-2.377-4.789-.637 4.66a.423.423 0 0 1-.42.37h-.809a.422.422 0 0 1-.421-.486l1.2-8.37c.03-.21.21-.365.42-.365Zm-5.545 1.677h-1.053v1.99l.997.013c.636 0 .946-.069 1.092-.125a.836.836 0 0 0 .425-.34.98.98 0 0 0 .16-.55.949.949 0 0 0-.16-.537.818.818 0 0 0-.4-.335c-.133-.052-.43-.116-1.061-.116Zm3.847-5.764a.778.778 0 1 1 0 1.556.778.778 0 0 1 0-1.556Zm-4.242-2.734a.778.778 0 1 1 0 1.556.778.778 0 0 1 0-1.556Zm8.485 0a.778.778 0 1 1 0 1.556.778.778 0 0 1 0-1.556Zm-4.243-2.734a.778.778 0 1 1 0 1.556.778.778 0 0 1 0-1.556Zm-8.49 0a.778.778 0 1 1 0 1.556.778.778 0 0 1 0-1.556Zm16.975 0a.778.778 0 1 1 0 1.556.778.778 0 0 1 0-1.556Zm-12.727-2.734a.778.778 0 1 1 0 1.556.778.778 0 0 1 0-1.556Zm8.485 0a.778.778 0 1 1 0 1.556.778.778 0 0 1 0-1.556Zm-4.243-2.733a.778.778 0 1 1 0 1.556.778.778 0 0 1 0-1.556Z" fill="#313132" fill-rule="evenodd"/></svg>