<?xml version="1.0" encoding="utf-8"?>
<svg fill="#000000" width="800px" height="800px" viewBox="0 0 1024 1024" xmlns="http://www.w3.org/2000/svg">
    <path d="M829.44 911.36c45.245 0 81.92-36.675 81.92-81.92V194.56c0-45.245-36.675-81.92-81.92-81.92H194.56c-45.245 0-81.92 36.675-81.92 81.92v634.88c0 45.245 36.675 81.92 81.92 81.92h634.88zm0 40.96H194.56c-67.866 0-122.88-55.014-122.88-122.88V194.56c0-67.866 55.014-122.88 122.88-122.88h634.88c67.866 0 122.88 55.014 122.88 122.88v634.88c0 67.866-55.014 122.88-122.88 122.88z"/>
    <path d="M571.207 679.528c8.948 12.198 13.841 26.88 13.841 42.343 0 39.588-32.094 71.68-71.68 71.68-39.592 0-71.68-32.088-71.68-71.68 0-14.73 4.436-28.756 12.601-40.599l-33.722-23.249c-12.843 18.628-19.839 40.749-19.839 63.849 0 62.214 50.426 112.64 112.64 112.64 62.207 0 112.64-50.429 112.64-112.64 0-24.253-7.715-47.405-21.774-66.57l-33.027 24.227z"/>
    <path d="M580.161 694.89c5.627 9.812 18.143 13.204 27.954 7.577s13.204-18.143 7.577-27.954l-69.284-120.812c-16.261-28.378-49.827-28.378-66.091.006l-69.28 120.805c-5.627 9.812-2.234 22.327 7.577 27.954s22.327 2.234 27.954-7.577l66.796-116.474 66.796 116.474z"/>
    <path d="M656.794 508.65c22.402 30.575 34.665 67.427 34.665 106.178 0 99.233-80.352 179.671-179.456 179.671-99.113 0-179.466-80.436-179.466-179.671 0-36.915 11.12-72.112 31.582-101.823l-33.734-23.232c-25.132 36.492-38.808 79.778-38.808 125.055 0 121.847 98.683 220.631 220.426 220.631 121.735 0 220.416-98.786 220.416-220.631 0-47.531-15.08-92.847-42.585-130.387l-33.04 24.209z"/>
    <path d="M677.683 544.271c5.622 9.815 18.136 13.213 27.951 7.591s13.213-18.136 7.591-27.951L545.043 230.31c-16.261-28.397-49.807-28.397-66.084-.007L310.773 523.911c-5.622 9.815-2.223 22.328 7.591 27.951s22.328 2.223 27.951-7.591l165.684-289.24 165.684 289.24z"/>
</svg>
